<svg id="Capa_1" enable-background="new 0 0 512.006 512.006" height="512" viewBox="0 0 512.006 512.006" width="512" xmlns="http://www.w3.org/2000/svg"><g><path d="m148.424 232.712c3.706-7.412.703-16.421-6.709-20.127l-120-60c-7.397-3.662-16.421-.703-20.127 6.709s-.703 16.421 6.709 20.127l49.281 24.641c-26.607 107.75-57.572 239.234-57.572 262.941 0 24.814 20.186 45 45 45h44.687c.174 0 .313-.141.313-.313v-291.415l38.291 19.146c7.48 3.713 16.435.652 20.127-6.709z"/><path d="m482.006 452.003h-362v60h362c16.569 0 30-13.433 30-30 0-16.569-13.431-30-30-30z"/><path d="m271.006 422.003h60c.207-23.91 5.447-51.488 14.533-78.84-19.25-17.404-32.294-38.414-39.036-63.68-20.095 43.54-34.999 93.872-35.497 142.52z"/><path d="m182.542 210.995 44.856.013c47.065 0 87.788-34.209 106.318-89.448 6.071-17.492-5.857-36.227-23.944-39.01 12.18-8.061 20.234-21.877 20.234-37.546 0-24.814-20.186-45-45-45s-45 20.186-45 45 20.186 45 45 45c.515 0 1.024-.022 1.535-.039-.1.099-7.117 2.431-10.13 13.944-9.346 29.121-27.524 46.289-50.405 47.095h-1c-26.6 0-49.206 17.388-57.05 41.398-3.025 9.255 4.846 18.591 14.586 18.593z"/><path d="m331.006 241.003c1.846 43.447 19.043 73.506 54.404 94.775 24.082 13.711 48.486 21.138 79.16 24.082 9.064.824 16.436-6.27 16.436-14.927v-30.043c0-7.617-5.698-14.019-13.257-14.897-20.347-2.373-39.111-8.071-51.475-15.659-17.124-10.488-24.683-23.525-25.269-43.33-.4-38.982-10.147-77.072-28.104-112.286-.248.841-.501 1.682-.788 2.516-8.43 25.075-21.088 47.081-37.041 64.684 3.665 14.206 5.699 29.242 5.934 45.085z"/></g></svg>